<svg width="140" height="140" viewBox="0 0 140 140" fill="none" xmlns="http://www.w3.org/2000/svg">
<path d="M70 0C31.3973 0 0 31.3973 0 70C0 108.603 31.3973 140 70 140C108.603 140 140 108.603 140 70C140 31.3973 108.603 0 70 0ZM70 130.667C36.5493 130.667 9.33333 103.451 9.33333 70C9.33333 36.5493 36.5493 9.33333 70 9.33333C103.451 9.33333 130.667 36.5493 130.667 70C130.667 103.451 103.451 130.667 70 130.667Z" fill="black"/>
<path d="M74.6667 32.6667H65.3333V65.3334H32.6667V74.6667H65.3333V107.333H74.6667V74.6667H107.333V65.3334H74.6667V32.6667Z" fill="black"/>
</svg>
