<svg width="30" height="30" viewBox="0 0 30 30" fill="none" xmlns="http://www.w3.org/2000/svg">
<path d="M26.1262 6.39182L24.0787 4.34713C23.8673 4.13572 23.5894 4.02979 23.3119 4.02979C23.0344 4.02979 22.7569 4.13525 22.5455 4.34666L20.9077 5.97978L24.4884 9.55447L26.1262 7.92182C26.5495 7.499 26.5495 6.81322 26.1262 6.39182Z" fill="black"/>
<path d="M10.2759 16.5919L13.8572 20.1671L23.722 10.3205L20.1408 6.74536L10.2759 16.5919Z" fill="black"/>
<path d="M9.50297 17.3569L8.73843 21.6938L13.0842 20.9316L9.50297 17.3569Z" fill="black"/>
<path d="M19.403 23.6263H5.90016V10.1235H15.4294L17.7778 7.77979H5.07188C4.23797 7.77979 3.55594 8.46182 3.55594 9.29572V24.4546C3.55594 25.2885 4.23797 25.9706 5.07188 25.9706H20.2308C21.0647 25.9706 21.7467 25.2885 21.7467 24.4546V13.6167L19.403 15.9562V23.6263Z" fill="black"/>
</svg>
