<?xml version="1.0" standalone="no"?>
<!DOCTYPE svg PUBLIC "-//W3C//DTD SVG 20010904//EN"
 "http://www.w3.org/TR/2001/REC-SVG-20010904/DTD/svg10.dtd">
<svg version="1.0" xmlns="http://www.w3.org/2000/svg"
 width="900.000000pt" height="520.000000pt" viewBox="0 0 900.000000 520.000000"
 preserveAspectRatio="xMidYMid meet">
<metadata>
Created by potrace 1.16, written by Peter Selinger 2001-2019
</metadata>
<g transform="translate(0.000000,520.000000) scale(0.100000,-0.100000)"
fill="#000000" stroke="none">
<path d="M3266 4405 c-30 -10 -99 -73 -274 -247 -128 -128 -240 -246 -249
-262 -17 -32 -22 -105 -10 -151 6 -21 164 -186 545 -567 l537 -538 -537 -537
c-484 -485 -538 -542 -548 -582 -12 -47 -7 -99 15 -141 7 -14 121 -131 252
-262 196 -194 245 -238 278 -247 50 -14 60 -14 110 0 34 9 118 89 578 547
l537 537 538 -537 c484 -484 541 -538 581 -548 47 -12 99 -7 141 15 14 7 131
121 262 252 194 196 238 245 247 278 14 50 14 60 0 110 -9 34 -89 118 -547
578 l-537 537 537 538 c458 459 538 543 547 577 14 50 14 60 0 110 -9 33 -53
82 -247 278 -131 131 -248 245 -262 252 -42 22 -94 27 -141 15 -40 -10 -97
-64 -581 -548 l-538 -537 -537 537 c-460 458 -544 538 -578 547 -51 14 -71 13
-119 -4z"/>
</g>
</svg>
